<?xml version="1.0" encoding="UTF-8"?>
<svg version="1.1" xmlns="http://www.w3.org/2000/svg" width="1024" height="1024">
<path d="M0 0 C337.92 0 675.84 0 1024 0 C1024 337.92 1024 675.84 1024 1024 C686.08 1024 348.16 1024 0 1024 C0 686.08 0 348.16 0 0 Z " fill="#FEFEFE" transform="translate(0,0)"/>
<path d="M0 0 C2.36661237 2.17515443 4.69372221 4.38602072 7.00073242 6.62426758 C8.40645508 7.96038086 8.40645508 7.96038086 9.84057617 9.32348633 C12.00073242 11.62426758 12.00073242 11.62426758 12.00073242 13.62426758 C12.66073242 13.62426758 13.32073242 13.62426758 14.00073242 13.62426758 C15.78780131 15.92149117 17.43929349 18.21450711 19.06323242 20.62426758 C19.553479 21.34976807 20.04372559 22.07526855 20.54882812 22.82275391 C51.49111434 69.20860544 58.03668569 129.70281414 47.36645508 183.8425293 C42.19057882 207.96365115 33.59635239 231.198682 18.00073242 250.62426758 C17.29303711 251.5446582 16.5853418 252.46504883 15.85620117 253.41333008 C-0.40641825 274.09049593 -23.00261574 287.27393661 -47.99926758 294.62426758 C-49.06346924 294.94186035 -49.06346924 294.94186035 -50.14916992 295.26586914 C-83.58039275 304.74042634 -121.1387926 299.03576868 -151.37426758 282.87426758 C-162.77802984 275.99176165 -178.49956016 264.53617583 -182.76098633 251.24926758 C-182.83961914 250.71301758 -182.91825195 250.17676758 -182.99926758 249.62426758 C-183.65926758 249.62426758 -184.31926758 249.62426758 -184.99926758 249.62426758 C-184.99926758 304.40426758 -184.99926758 359.18426758 -184.99926758 415.62426758 C-213.37926758 415.62426758 -241.75926758 415.62426758 -270.99926758 415.62426758 C-270.99926758 269.76426758 -270.99926758 123.90426758 -270.99926758 -26.37573242 C-243.27926758 -26.37573242 -215.55926758 -26.37573242 -186.99926758 -26.37573242 C-186.50426758 -6.08073242 -186.50426758 -6.08073242 -185.99926758 14.62426758 C-183.35926758 10.99426758 -180.71926758 7.36426758 -177.99926758 3.62426758 C-169.93195033 -6.77360799 -159.33230246 -13.88953007 -147.99926758 -20.37573242 C-147.19102539 -20.84881836 -146.3827832 -21.3219043 -145.55004883 -21.80932617 C-100.09651082 -46.58111853 -37.10259436 -33.40621024 0 0 Z " fill="#F9C007" transform="translate(738.999267578125,382.375732421875)"/>
<path d="M0 0 C0.77186646 -0.00555908 1.54373291 -0.01111816 2.33898926 -0.0168457 C20.37794901 -0.08159098 37.93082123 2.39334976 55.6875 5.375 C54.5567108 19.29889686 52.8946021 33.14547246 51.125 47 C51.01322418 47.88277618 50.90144836 48.76555237 50.7862854 49.67507935 C50.4639943 52.2135526 50.13715519 54.75139401 49.80859375 57.2890625 C49.71071564 58.06012833 49.61283752 58.83119415 49.51199341 59.62562561 C49.11212427 62.67264391 48.66207349 65.45127954 47.6875 68.375 C47.039021 68.3342334 46.39054199 68.2934668 45.72241211 68.25146484 C15.33419782 66.246726 15.33419782 66.246726 -11.69921875 78.65625 C-24.48603053 92.27900347 -20.80009187 114.97793996 -21.3125 131.375 C1.1275 131.375 23.5675 131.375 46.6875 131.375 C46.6875 151.835 46.6875 172.295 46.6875 193.375 C23.9175 193.375 1.1475 193.375 -22.3125 193.375 C-22.3125 277.855 -22.3125 362.335 -22.3125 449.375 C-50.0325 449.375 -77.7525 449.375 -106.3125 449.375 C-106.3125 364.895 -106.3125 280.415 -106.3125 193.375 C-123.8025 193.375 -141.2925 193.375 -159.3125 193.375 C-159.3125 173.245 -159.3125 153.115 -159.3125 132.375 C-141.8225 132.375 -124.3325 132.375 -106.3125 132.375 C-106.4304892 116.64046306 -106.4304892 116.64046306 -106.58276367 100.90625 C-106.74216995 76.15738143 -103.08749801 52.67129029 -86.3125 33.375 C-85.61769531 32.57320313 -84.92289062 31.77140625 -84.20703125 30.9453125 C-74.69117887 20.71218482 -62.24340742 13.49225408 -49.3125 8.375 C-47.99572266 7.84132812 -47.99572266 7.84132812 -46.65234375 7.296875 C-31.40687109 1.41804526 -16.18519107 0.09795147 0 0 Z " fill="#469D28" transform="translate(387.3125,225.625)"/>
<path d="M0 0 C2.53801089 2.19315139 4.87559148 4.4653512 7.18359375 6.8984375 C7.8796875 7.62417969 8.57578125 8.34992188 9.29296875 9.09765625 C27.55096986 29.93866914 31.77147729 60.24347196 31.57470703 86.88061523 C31.5585711 89.46456444 31.57470942 92.04695562 31.59375 94.63085938 C31.62921623 122.5200155 25.90486893 152.03844584 6.23828125 172.96875 C-7.25115462 186.05997374 -25.40399907 190.51206427 -43.67919922 190.30322266 C-61.86858614 189.75776176 -81.69862125 184.31211239 -94.81640625 170.8984375 C-112.99300867 150.57758978 -120.78279958 125.12418883 -121.0546875 98.11328125 C-121.06443604 97.30266235 -121.07418457 96.49204346 -121.08422852 95.65686035 C-121.38606902 64.06170543 -120.33274544 32.42876051 -97.81640625 7.8984375 C-72.32650396 -16.27980601 -28.6875596 -21.40625113 0 0 Z " fill="#FEFEFE" transform="translate(671.81640625,427.1015625)"/>
<path d="M0 0 C0.33 0 0.66 0 1 0 C1 55.11 1 110.22 1 167 C-27.38 167 -55.76 167 -85 167 C-84.67 166.01 -84.34 165.02 -84 164 C-42.42 164.495 -42.42 164.495 0 165 C0 110.55 0 56.1 0 0 Z " fill="#F8B101" transform="translate(553,631)"/>
<path d="M0 0 C0.33 0 0.66 0 1 0 C1 12.21 1 24.42 1 37 C1.66 37 2.32 37 3 37 C2.42655063 39.86724686 2.1385485 40.8614515 0 43 C0 28.81 0 14.62 0 0 Z " fill="#FEFBEE" transform="translate(552,356)"/>
<path d="M0 0 C0.66 0 1.32 0 2 0 C1.67 4.62 1.34 9.24 1 14 C0.67 14 0.34 14 0 14 C-0.19456705 12.04235617 -0.38044247 10.08384679 -0.5625 8.125 C-0.66691406 7.03445313 -0.77132812 5.94390625 -0.87890625 4.8203125 C-1 2 -1 2 0 0 Z " fill="#FAC01A" transform="translate(787,543)"/>
</svg>
